<?xml version="1.0" encoding="utf-8"?>
<!-- Generator: Adobe Illustrator 24.0.1, SVG Export Plug-In . SVG Version: 6.00 Build 0)  -->
<svg version="1.1" id="Layer_1" xmlns="http://www.w3.org/2000/svg" xmlns:xlink="http://www.w3.org/1999/xlink" x="0px" y="0px"
	 viewBox="0 0 283.46 283.46" style="enable-background:new 0 0 283.46 283.46;" xml:space="preserve">
<style type="text/css">
	.st0{fill:none;stroke:#231F20;stroke-width:3.6951;stroke-miterlimit:10;}
	.st1{fill:none;stroke:#231F20;stroke-width:3.6951;stroke-linecap:round;stroke-miterlimit:10;}
	.st2{fill:none;stroke:#231F20;stroke-width:1.9349;stroke-linecap:round;stroke-miterlimit:10;}
	.st3{fill:none;stroke:#231F20;stroke-width:8.5039;stroke-linecap:round;stroke-miterlimit:10;}
	.st4{fill:none;stroke:#231F20;stroke-width:2.8346;stroke-linecap:round;stroke-miterlimit:10;}
</style>
<g>
	<line class="st3" x1="141.73" y1="86.77" x2="159.05" y2="86.77"/>
	<line class="st3" x1="152.45" y1="58.85" x2="164.7" y2="70"/>
	<line class="st3" x1="221.28" y1="58.85" x2="209.04" y2="70"/>
	<line class="st3" x1="232.21" y1="86.77" x2="214.89" y2="86.77"/>
	<line class="st3" x1="141.73" y1="141.97" x2="89.34" y2="141.97"/>
	<path class="st3" d="M203.17,105.18V89.13c-0.03-12.58-6.48-16.98-16.34-17c-9.84-0.03-16.36,4.37-16.34,17v12.97"/>
	<path class="st3" d="M100.28,219.73v3.5c-0.04,12.67-8.84,17.1-22.29,17.13c-13.42,0.03-22.33-4.4-22.29-17.13v-3.5"/>
	<path class="st3" d="M229.46,219.73v3.5c-0.04,12.67-8.84,17.1-22.29,17.13c-13.42,0.03-22.33-4.4-22.29-17.13v-3.5"/>
	<path class="st3" d="M22.75,184.27L22.75,184.27c0,13.44,9.75,24.34,21.77,24.34h194.42c12.02,0,21.77-10.9,21.77-24.34v0"/>
	<line class="st3" x1="186.87" y1="58.94" x2="186.87" y2="43.11"/>
	<line class="st3" x1="115.53" y1="164.45" x2="115.53" y2="119.5"/>
	<path class="st3" d="M209.61,122L209.61,122c-4.54,0-8.23,3.68-8.23,8.23v0.32v16.52c-0.31,10.24,12.95,11.36,29.33,11.85
		s29.68,0.17,29.99-10.07l-0.37-9.97c0.87-30.82-52.26-34.69-117.87-36.81S23.62,100.4,22.75,131.22"/>
</g>
</svg>
