<?xml version="1.0" encoding="utf-8"?>
<!-- Generator: Adobe Illustrator 24.0.1, SVG Export Plug-In . SVG Version: 6.00 Build 0)  -->
<svg version="1.1" id="Layer_1" xmlns="http://www.w3.org/2000/svg" xmlns:xlink="http://www.w3.org/1999/xlink" x="0px" y="0px"
	 viewBox="0 0 283.46 283.46" style="enable-background:new 0 0 283.46 283.46;" xml:space="preserve">
<style type="text/css">
	.st0{fill:none;stroke:#231F20;stroke-width:3.6951;stroke-miterlimit:10;}
	.st1{fill:none;stroke:#231F20;stroke-width:3.6951;stroke-linecap:round;stroke-miterlimit:10;}
	.st2{fill:none;stroke:#231F20;stroke-width:1.9349;stroke-linecap:round;stroke-miterlimit:10;}
	.st3{fill:none;stroke:#231F20;stroke-width:8.5039;stroke-linecap:round;stroke-miterlimit:10;}
	.st4{fill:none;stroke:#231F20;stroke-width:2.8346;stroke-linecap:round;stroke-miterlimit:10;}
</style>
<g>
	<path class="st3" d="M161.25,245.58c0.22,13.65-8.58,14.75-19.45,14.93s-19.7-0.63-19.93-14.28"/>
	<path class="st3" d="M223.91,105.11c0-48.48-41.98-87.15-91.57-81.65c-37.65,4.18-68.07,34.61-72.26,72.26
		c-3.24,29.15,8.81,55.59,29.12,72.48c8.23,6.84,14.5,15.49,19.52,24.93c5.77,10.84,18.37,11.87,33.01,11.87
		c14.64,0,27.23-1.03,33-11.85c5.09-9.55,11.5-18.22,19.79-25.17C212.48,152.93,223.91,130.38,223.91,105.11z"/>
	<path class="st3" d="M173.65,209.53c0,17.38-18.57,18.59-31.98,18.59s-31.98-1.22-31.98-18.59"/>
	<path class="st3" d="M167.14,234.61c0,10.09-19.31,10.79-25.52,10.79s-25.52-0.71-25.52-10.79"/>
</g>
</svg>
