<?xml version="1.0" encoding="utf-8"?>
<!-- Generator: Adobe Illustrator 24.0.1, SVG Export Plug-In . SVG Version: 6.00 Build 0)  -->
<svg version="1.1" id="Layer_1" xmlns="http://www.w3.org/2000/svg" xmlns:xlink="http://www.w3.org/1999/xlink" x="0px" y="0px"
	 viewBox="0 0 283.46 283.46" style="enable-background:new 0 0 283.46 283.46;" xml:space="preserve">
<style type="text/css">
	.st0{fill:none;stroke:#231F20;stroke-width:3.6951;stroke-miterlimit:10;}
	.st1{fill:none;stroke:#231F20;stroke-width:3.6951;stroke-linecap:round;stroke-miterlimit:10;}
	.st2{fill:none;stroke:#231F20;stroke-width:1.9349;stroke-linecap:round;stroke-miterlimit:10;}
	.st3{fill:none;stroke:#231F20;stroke-width:8.5039;stroke-linecap:round;stroke-miterlimit:10;}
	.st4{fill:none;stroke:#231F20;stroke-width:2.8346;stroke-linecap:round;stroke-miterlimit:10;}
</style>
<g>
	<g>
		<path class="st3" d="M126.76,257.47h-15.31c-26.09-0.78-26.36-52.65-24.44-116.57c1.92-63.92,5.3-115.68,31.39-114.89h8.37"/>
		<path class="st3" d="M156.61,26.01h8.46c26.09-0.78,29.47,50.98,31.39,114.89s1.65,115.79-24.44,116.57h-15.41"/>
	</g>
	<path class="st3" d="M158.46,76.62L158.46,76.62c-6.38,0-11.6-5.22-11.6-11.6v0c0-6.38,5.22-11.6,11.6-11.6h0
		c6.38,0,11.6,5.22,11.6,11.6v0C170.05,71.4,164.84,76.62,158.46,76.62z"/>
	<g>
		<path class="st3" d="M119.86,119.87L119.86,119.87c-6.38,0-11.6-5.22-11.6-11.6v0c0-6.38,5.22-11.6,11.6-11.6h0
			c6.38,0,11.6,5.22,11.6,11.6v0C131.45,114.65,126.23,119.87,119.86,119.87z"/>
		<path class="st3" d="M163.51,119.87L163.51,119.87c-6.38,0-11.6-5.22-11.6-11.6v0c0-6.38,5.22-11.6,11.6-11.6h0
			c6.38,0,11.6,5.22,11.6,11.6v0C175.11,114.65,169.89,119.87,163.51,119.87z"/>
		<path class="st3" d="M119.86,163.32L119.86,163.32c-6.38,0-11.6-5.22-11.6-11.6v0c0-6.38,5.22-11.6,11.6-11.6h0
			c6.38,0,11.6,5.22,11.6,11.6v0C131.45,158.11,126.23,163.32,119.86,163.32z"/>
		<path class="st3" d="M163.51,163.32L163.51,163.32c-6.38,0-11.6-5.22-11.6-11.6v0c0-6.38,5.22-11.6,11.6-11.6h0
			c6.38,0,11.6,5.22,11.6,11.6v0C175.11,158.11,169.89,163.32,163.51,163.32z"/>
		<path class="st3" d="M119.86,206.78L119.86,206.78c-6.38,0-11.6-5.22-11.6-11.6v0c0-6.38,5.22-11.6,11.6-11.6h0
			c6.38,0,11.6,5.22,11.6,11.6v0C131.45,201.56,126.23,206.78,119.86,206.78z"/>
		<path class="st3" d="M163.51,206.78L163.51,206.78c-6.38,0-11.6-5.22-11.6-11.6v0c0-6.38,5.22-11.6,11.6-11.6h0
			c6.38,0,11.6,5.22,11.6,11.6v0C175.11,201.56,169.89,206.78,163.51,206.78z"/>
	</g>
</g>
</svg>
