<?xml version="1.0" encoding="utf-8"?>
<!-- Generator: Adobe Illustrator 24.0.1, SVG Export Plug-In . SVG Version: 6.00 Build 0)  -->
<svg version="1.1" id="Layer_1" xmlns="http://www.w3.org/2000/svg" xmlns:xlink="http://www.w3.org/1999/xlink" x="0px" y="0px"
	 viewBox="0 0 283.46 283.46" style="enable-background:new 0 0 283.46 283.46;" xml:space="preserve">
<style type="text/css">
	.st0{fill:none;stroke:#231F20;stroke-width:3.6951;stroke-miterlimit:10;}
	.st1{fill:none;stroke:#231F20;stroke-width:3.6951;stroke-linecap:round;stroke-miterlimit:10;}
	.st2{fill:none;stroke:#231F20;stroke-width:1.9349;stroke-linecap:round;stroke-miterlimit:10;}
	.st3{fill:none;stroke:#231F20;stroke-width:8.5039;stroke-linecap:round;stroke-miterlimit:10;}
	.st4{fill:none;stroke:#231F20;stroke-width:2.8346;stroke-linecap:round;stroke-miterlimit:10;}
</style>
<g>
	<circle class="st3" cx="141.73" cy="112.68" r="84.76"/>
	<path class="st3" d="M188.53,236.92c0.27,16.6-21.45,18.11-48.26,18.55s-48.57-0.37-48.85-16.96"/>
	<path class="st3" d="M160.16,221.5c0.23,14.08-8.85,15.21-20.06,15.4s-20.32-0.65-20.56-14.73"/>
	<path class="st3" d="M160,104.16c16.81-7.84,36.72-4.45,49.99,8.51l0,0"/>
	<path class="st3" d="M143.49,92.6c1.62-18.48,14.51-34.03,32.37-39.04l0,0"/>
	<path class="st3" d="M160,104.16c16.81-7.84,36.72-4.45,49.99,8.51l0,0"/>
	<path class="st3" d="M160,104.16c16.81-7.84,36.72-4.45,49.99,8.51l0,0"/>
	<path class="st3" d="M143.12,96.85l0.37-4.25c1.62-18.48,14.51-34.03,32.37-39.04l0,0"/>
	<path class="st3" d="M128.77,103.6l-3.55-2.48c-15.19-10.64-22.21-29.58-17.62-47.55l0,0"/>
	<path class="st3" d="M123.46,121.19c-16.81,7.84-36.72,4.45-49.99-8.51l0,0"/>
	<path class="st3" d="M139.97,132.76c-1.62,18.48-14.51,34.03-32.37,39.04l0,0"/>
	<path class="st3" d="M158.24,124.24c15.19,10.64,22.21,29.58,17.62,47.55l0,0"/>
	<path class="st3" d="M166.24,195.64v14.54c0,10.4-19.92,11.13-26.32,11.13s-26.32-0.73-26.32-11.13v-14.54"/>
</g>
</svg>
