<?xml version="1.0" encoding="utf-8"?>
<!-- Generator: Adobe Illustrator 24.0.1, SVG Export Plug-In . SVG Version: 6.00 Build 0)  -->
<svg version="1.1" id="Layer_1" xmlns="http://www.w3.org/2000/svg" xmlns:xlink="http://www.w3.org/1999/xlink" x="0px" y="0px"
	 viewBox="0 0 283.46 283.46" style="enable-background:new 0 0 283.46 283.46;" xml:space="preserve">
<style type="text/css">
	.st0{fill:none;stroke:#231F20;stroke-width:3.6951;stroke-miterlimit:10;}
	.st1{fill:none;stroke:#231F20;stroke-width:3.6951;stroke-linecap:round;stroke-miterlimit:10;}
	.st2{fill:none;stroke:#231F20;stroke-width:1.9349;stroke-linecap:round;stroke-miterlimit:10;}
	.st3{fill:none;stroke:#231F20;stroke-width:8.5039;stroke-linecap:round;stroke-miterlimit:10;}
	.st4{fill:none;stroke:#231F20;stroke-width:2.8346;stroke-linecap:round;stroke-miterlimit:10;}
</style>
<g>
	<path class="st3" d="M179.86,199.17c0.27,16.34-16.81,17.76-37.91,18.11s-38.21-0.52-38.48-16.86"/>
	<path class="st3" d="M195.09,208.15c0.3,18.27-23.61,19.94-53.12,20.42s-53.47-0.4-53.76-18.67"/>
	<path class="st3" d="M259.11,157.93c0-17.8,0-53.39,0-71.19c0-11.83-8.52-21.91-20.17-23.94c-20.12-3.5-54.19-7.97-97.21-8
		c-42.97-0.02-77.08,4.46-97.22,7.98c-11.65,2.04-20.16,12.11-20.16,23.94c0,17.8,0,53.4,0,71.2v11.91v4.98
		c-0.18,18.09,46.71,24.39,117.38,24.35c70.81-0.04,117.15-6.34,117.38-24.35v-4.98V157.93z"/>
	<path class="st3" d="M68.65,81.07c0,0,36.82-3.71,73.01-3.71c36.26,0,73.17,3.71,73.17,3.71c10.96,0,19.85,8.89,19.85,19.85v52.05"
		/>
	<path class="st3" d="M214.82,172.81c0,0-16.98,5.17-73.09,5.17s-73.09-5.17-73.09-5.17c-10.96,0-19.85-8.89-19.85-19.85v-52.05"/>
</g>
</svg>
